%TF.GenerationSoftware,KiCad,Pcbnew,6.0.11+dfsg-1~bpo11+1*%
%TF.CreationDate,2023-02-24T17:28:24+00:00*%
%TF.ProjectId,134n3p,3133346e-3370-42e6-9b69-6361645f7063,rev?*%
%TF.SameCoordinates,Original*%
%TF.FileFunction,Copper,L2,Bot*%
%TF.FilePolarity,Positive*%
%FSLAX46Y46*%
G04 Gerber Fmt 4.6, Leading zero omitted, Abs format (unit mm)*
G04 Created by KiCad (PCBNEW 6.0.11+dfsg-1~bpo11+1) date 2023-02-24 17:28:24*
%MOMM*%
%LPD*%
G01*
G04 APERTURE LIST*
%TA.AperFunction,ComponentPad*%
%ADD10R,1.500000X1.500000*%
%TD*%
%TA.AperFunction,ComponentPad*%
%ADD11C,1.500000*%
%TD*%
%TA.AperFunction,ViaPad*%
%ADD12C,0.800000*%
%TD*%
G04 APERTURE END LIST*
D10*
%TO.P,GND,1,1*%
%TO.N,GND*%
X135138160Y-91948000D03*
%TD*%
D11*
%TO.P,U2,1,GND*%
%TO.N,GND*%
X149440000Y-89958000D03*
X153237300Y-81322000D03*
X149440000Y-81322000D03*
X153237300Y-89958000D03*
%TD*%
D10*
%TO.P,VCC,1,1*%
%TO.N,Net-(C2-Pad2)*%
X135128000Y-79248000D03*
%TD*%
%TO.P,B-,1,1*%
%TO.N,GND*%
X135128000Y-86868000D03*
%TD*%
%TO.P,B+,1,1*%
%TO.N,Net-(C3-Pad1)*%
X135138160Y-84328000D03*
%TD*%
D12*
%TO.N,GND*%
X139954000Y-84328000D03*
X145010000Y-89950000D03*
X146870000Y-89750000D03*
X147200000Y-81480000D03*
X137550000Y-90920000D03*
%TD*%
%TA.AperFunction,Conductor*%
%TO.N,GND*%
G36*
X154073621Y-78668502D02*
G01*
X154120114Y-78722158D01*
X154131500Y-78774500D01*
X154131500Y-80170348D01*
X154111498Y-80238469D01*
X154057842Y-80284962D01*
X153987568Y-80295066D01*
X153933229Y-80273561D01*
X153873211Y-80231536D01*
X153863716Y-80226053D01*
X153674187Y-80137674D01*
X153663895Y-80133928D01*
X153461899Y-80079804D01*
X153451104Y-80077901D01*
X153242775Y-80059674D01*
X153231825Y-80059674D01*
X153023496Y-80077901D01*
X153012701Y-80079804D01*
X152810705Y-80133928D01*
X152800413Y-80137674D01*
X152610883Y-80226054D01*
X152601393Y-80231534D01*
X152560151Y-80260411D01*
X152551777Y-80270886D01*
X152558845Y-80284333D01*
X153507416Y-81232905D01*
X153541441Y-81295217D01*
X153536376Y-81366033D01*
X153507415Y-81411095D01*
X153237300Y-81681210D01*
X152558124Y-82360387D01*
X152551694Y-82372162D01*
X152560990Y-82384176D01*
X152601388Y-82412464D01*
X152610884Y-82417947D01*
X152800413Y-82506326D01*
X152810705Y-82510072D01*
X153012701Y-82564196D01*
X153023496Y-82566099D01*
X153231825Y-82584326D01*
X153242775Y-82584326D01*
X153451104Y-82566099D01*
X153461899Y-82564196D01*
X153663895Y-82510072D01*
X153674187Y-82506326D01*
X153863716Y-82417947D01*
X153873211Y-82412464D01*
X153933229Y-82370439D01*
X154000503Y-82347751D01*
X154069363Y-82365036D01*
X154117948Y-82416805D01*
X154131500Y-82473652D01*
X154131500Y-88806348D01*
X154111498Y-88874469D01*
X154057842Y-88920962D01*
X153987568Y-88931066D01*
X153933229Y-88909561D01*
X153873211Y-88867536D01*
X153863716Y-88862053D01*
X153674187Y-88773674D01*
X153663895Y-88769928D01*
X153461899Y-88715804D01*
X153451104Y-88713901D01*
X153242775Y-88695674D01*
X153231825Y-88695674D01*
X153023496Y-88713901D01*
X153012701Y-88715804D01*
X152810705Y-88769928D01*
X152800413Y-88773674D01*
X152610883Y-88862054D01*
X152601393Y-88867534D01*
X152560151Y-88896411D01*
X152551777Y-88906886D01*
X152558845Y-88920333D01*
X153507416Y-89868905D01*
X153541441Y-89931217D01*
X153536376Y-90002033D01*
X153507415Y-90047095D01*
X153237300Y-90317210D01*
X152558124Y-90996387D01*
X152551694Y-91008162D01*
X152560990Y-91020176D01*
X152601388Y-91048464D01*
X152610884Y-91053947D01*
X152800413Y-91142326D01*
X152810705Y-91146072D01*
X153012701Y-91200196D01*
X153023496Y-91202099D01*
X153231825Y-91220326D01*
X153242775Y-91220326D01*
X153451104Y-91202099D01*
X153461899Y-91200196D01*
X153663895Y-91146072D01*
X153674187Y-91142326D01*
X153863716Y-91053947D01*
X153873211Y-91048464D01*
X153933229Y-91006439D01*
X154000503Y-90983751D01*
X154069363Y-91001036D01*
X154117948Y-91052805D01*
X154131500Y-91109652D01*
X154131500Y-92505500D01*
X154111498Y-92573621D01*
X154057842Y-92620114D01*
X154005500Y-92631500D01*
X136522160Y-92631500D01*
X136454039Y-92611498D01*
X136407546Y-92557842D01*
X136396160Y-92505500D01*
X136396160Y-92220115D01*
X136391685Y-92204876D01*
X136390295Y-92203671D01*
X136382612Y-92202000D01*
X135010160Y-92202000D01*
X134942039Y-92181998D01*
X134895546Y-92128342D01*
X134884160Y-92076000D01*
X134884160Y-91675885D01*
X135392160Y-91675885D01*
X135396635Y-91691124D01*
X135398025Y-91692329D01*
X135405708Y-91694000D01*
X136378044Y-91694000D01*
X136393283Y-91689525D01*
X136394488Y-91688135D01*
X136396159Y-91680452D01*
X136396159Y-91153331D01*
X136395789Y-91146510D01*
X136390265Y-91095648D01*
X136386639Y-91080396D01*
X136359559Y-91008161D01*
X148754393Y-91008161D01*
X148763687Y-91020175D01*
X148804088Y-91048464D01*
X148813584Y-91053947D01*
X149003113Y-91142326D01*
X149013405Y-91146072D01*
X149215401Y-91200196D01*
X149226196Y-91202099D01*
X149434525Y-91220326D01*
X149445475Y-91220326D01*
X149653804Y-91202099D01*
X149664599Y-91200196D01*
X149866595Y-91146072D01*
X149876887Y-91142326D01*
X150066416Y-91053947D01*
X150075912Y-91048464D01*
X150117148Y-91019590D01*
X150125523Y-91009112D01*
X150118457Y-90995668D01*
X149452811Y-90330021D01*
X149438868Y-90322408D01*
X149437034Y-90322539D01*
X149430420Y-90326790D01*
X148760820Y-90996391D01*
X148754393Y-91008161D01*
X136359559Y-91008161D01*
X136341484Y-90959946D01*
X136332946Y-90944351D01*
X136256445Y-90842276D01*
X136243884Y-90829715D01*
X136141809Y-90753214D01*
X136126214Y-90744676D01*
X136005766Y-90699522D01*
X135990511Y-90695895D01*
X135939646Y-90690369D01*
X135932832Y-90690000D01*
X135410275Y-90690000D01*
X135395036Y-90694475D01*
X135393831Y-90695865D01*
X135392160Y-90703548D01*
X135392160Y-91675885D01*
X134884160Y-91675885D01*
X134884160Y-90708116D01*
X134879685Y-90692877D01*
X134878295Y-90691672D01*
X134870612Y-90690001D01*
X134343491Y-90690001D01*
X134336669Y-90690371D01*
X134288105Y-90695645D01*
X134218222Y-90683115D01*
X134166208Y-90634793D01*
X134148500Y-90570382D01*
X134148500Y-89963475D01*
X148177674Y-89963475D01*
X148195901Y-90171804D01*
X148197804Y-90182599D01*
X148251928Y-90384595D01*
X148255674Y-90394887D01*
X148344054Y-90584417D01*
X148349534Y-90593907D01*
X148378411Y-90635149D01*
X148388887Y-90643523D01*
X148402334Y-90636455D01*
X149067979Y-89970811D01*
X149074356Y-89959132D01*
X149804408Y-89959132D01*
X149804539Y-89960966D01*
X149808790Y-89967580D01*
X150478391Y-90637180D01*
X150490161Y-90643607D01*
X150502176Y-90634311D01*
X150530466Y-90593907D01*
X150535946Y-90584417D01*
X150624326Y-90394887D01*
X150628072Y-90384595D01*
X150682196Y-90182599D01*
X150684099Y-90171804D01*
X150702326Y-89963475D01*
X151974974Y-89963475D01*
X151993201Y-90171804D01*
X151995104Y-90182599D01*
X152049228Y-90384595D01*
X152052974Y-90394887D01*
X152141354Y-90584417D01*
X152146834Y-90593907D01*
X152175711Y-90635149D01*
X152186187Y-90643523D01*
X152199634Y-90636455D01*
X152865279Y-89970811D01*
X152872892Y-89956868D01*
X152872761Y-89955034D01*
X152868510Y-89948420D01*
X152198909Y-89278820D01*
X152187139Y-89272393D01*
X152175124Y-89281689D01*
X152146834Y-89322093D01*
X152141354Y-89331583D01*
X152052974Y-89521113D01*
X152049228Y-89531405D01*
X151995104Y-89733401D01*
X151993201Y-89744196D01*
X151974974Y-89952525D01*
X151974974Y-89963475D01*
X150702326Y-89963475D01*
X150702326Y-89952525D01*
X150684099Y-89744196D01*
X150682196Y-89733401D01*
X150628072Y-89531405D01*
X150624326Y-89521113D01*
X150535946Y-89331583D01*
X150530466Y-89322093D01*
X150501589Y-89280851D01*
X150491113Y-89272477D01*
X150477666Y-89279545D01*
X149812021Y-89945189D01*
X149804408Y-89959132D01*
X149074356Y-89959132D01*
X149075592Y-89956868D01*
X149075461Y-89955034D01*
X149071210Y-89948420D01*
X148401609Y-89278820D01*
X148389839Y-89272393D01*
X148377824Y-89281689D01*
X148349534Y-89322093D01*
X148344054Y-89331583D01*
X148255674Y-89521113D01*
X148251928Y-89531405D01*
X148197804Y-89733401D01*
X148195901Y-89744196D01*
X148177674Y-89952525D01*
X148177674Y-89963475D01*
X134148500Y-89963475D01*
X134148500Y-88906887D01*
X148754477Y-88906887D01*
X148761545Y-88920334D01*
X149427189Y-89585979D01*
X149441132Y-89593592D01*
X149442966Y-89593461D01*
X149449580Y-89589210D01*
X150119180Y-88919609D01*
X150125607Y-88907839D01*
X150116313Y-88895825D01*
X150075912Y-88867536D01*
X150066416Y-88862053D01*
X149876887Y-88773674D01*
X149866595Y-88769928D01*
X149664599Y-88715804D01*
X149653804Y-88713901D01*
X149445475Y-88695674D01*
X149434525Y-88695674D01*
X149226196Y-88713901D01*
X149215401Y-88715804D01*
X149013405Y-88769928D01*
X149003113Y-88773674D01*
X148813583Y-88862054D01*
X148804093Y-88867534D01*
X148762851Y-88896411D01*
X148754477Y-88906887D01*
X134148500Y-88906887D01*
X134148500Y-88246722D01*
X134168502Y-88178601D01*
X134222158Y-88132108D01*
X134288107Y-88121459D01*
X134326512Y-88125631D01*
X134333328Y-88126000D01*
X134855885Y-88126000D01*
X134871124Y-88121525D01*
X134872329Y-88120135D01*
X134874000Y-88112452D01*
X134874000Y-88107884D01*
X135382000Y-88107884D01*
X135386475Y-88123123D01*
X135387865Y-88124328D01*
X135395548Y-88125999D01*
X135922669Y-88125999D01*
X135929490Y-88125629D01*
X135980352Y-88120105D01*
X135995604Y-88116479D01*
X136116054Y-88071324D01*
X136131649Y-88062786D01*
X136233724Y-87986285D01*
X136246285Y-87973724D01*
X136322786Y-87871649D01*
X136331324Y-87856054D01*
X136376478Y-87735606D01*
X136380105Y-87720351D01*
X136385631Y-87669486D01*
X136386000Y-87662672D01*
X136386000Y-87140115D01*
X136381525Y-87124876D01*
X136380135Y-87123671D01*
X136372452Y-87122000D01*
X135400115Y-87122000D01*
X135384876Y-87126475D01*
X135383671Y-87127865D01*
X135382000Y-87135548D01*
X135382000Y-88107884D01*
X134874000Y-88107884D01*
X134874000Y-86740000D01*
X134894002Y-86671879D01*
X134947658Y-86625386D01*
X135000000Y-86614000D01*
X136367884Y-86614000D01*
X136383123Y-86609525D01*
X136384328Y-86608135D01*
X136385999Y-86600452D01*
X136385999Y-86073331D01*
X136385629Y-86066510D01*
X136380105Y-86015648D01*
X136376479Y-86000396D01*
X136331324Y-85879946D01*
X136322786Y-85864351D01*
X136246285Y-85762276D01*
X136233724Y-85749715D01*
X136171320Y-85702946D01*
X136128805Y-85646087D01*
X136123779Y-85575269D01*
X136157839Y-85512975D01*
X136171319Y-85501294D01*
X136251421Y-85441261D01*
X136338775Y-85324705D01*
X136389905Y-85188316D01*
X136396660Y-85126134D01*
X136396660Y-83529866D01*
X136389905Y-83467684D01*
X136338775Y-83331295D01*
X136251421Y-83214739D01*
X136134865Y-83127385D01*
X135998476Y-83076255D01*
X135936294Y-83069500D01*
X134340026Y-83069500D01*
X134288108Y-83075140D01*
X134218225Y-83062612D01*
X134166210Y-83014291D01*
X134148500Y-82949877D01*
X134148500Y-82372161D01*
X148754393Y-82372161D01*
X148763687Y-82384175D01*
X148804088Y-82412464D01*
X148813584Y-82417947D01*
X149003113Y-82506326D01*
X149013405Y-82510072D01*
X149215401Y-82564196D01*
X149226196Y-82566099D01*
X149434525Y-82584326D01*
X149445475Y-82584326D01*
X149653804Y-82566099D01*
X149664599Y-82564196D01*
X149866595Y-82510072D01*
X149876887Y-82506326D01*
X150066416Y-82417947D01*
X150075912Y-82412464D01*
X150117148Y-82383590D01*
X150125523Y-82373112D01*
X150118457Y-82359668D01*
X149452811Y-81694021D01*
X149438868Y-81686408D01*
X149437034Y-81686539D01*
X149430420Y-81690790D01*
X148760820Y-82360391D01*
X148754393Y-82372161D01*
X134148500Y-82372161D01*
X134148500Y-81327475D01*
X148177674Y-81327475D01*
X148195901Y-81535804D01*
X148197804Y-81546599D01*
X148251928Y-81748595D01*
X148255674Y-81758887D01*
X148344054Y-81948417D01*
X148349534Y-81957907D01*
X148378411Y-81999149D01*
X148388887Y-82007523D01*
X148402334Y-82000455D01*
X149067979Y-81334811D01*
X149074356Y-81323132D01*
X149804408Y-81323132D01*
X149804539Y-81324966D01*
X149808790Y-81331580D01*
X150478391Y-82001180D01*
X150490161Y-82007607D01*
X150502176Y-81998311D01*
X150530466Y-81957907D01*
X150535946Y-81948417D01*
X150624326Y-81758887D01*
X150628072Y-81748595D01*
X150682196Y-81546599D01*
X150684099Y-81535804D01*
X150702326Y-81327475D01*
X151974974Y-81327475D01*
X151993201Y-81535804D01*
X151995104Y-81546599D01*
X152049228Y-81748595D01*
X152052974Y-81758887D01*
X152141354Y-81948417D01*
X152146834Y-81957907D01*
X152175711Y-81999149D01*
X152186187Y-82007523D01*
X152199634Y-82000455D01*
X152865279Y-81334811D01*
X152872892Y-81320868D01*
X152872761Y-81319034D01*
X152868510Y-81312420D01*
X152198909Y-80642820D01*
X152187139Y-80636393D01*
X152175124Y-80645689D01*
X152146834Y-80686093D01*
X152141354Y-80695583D01*
X152052974Y-80885113D01*
X152049228Y-80895405D01*
X151995104Y-81097401D01*
X151993201Y-81108196D01*
X151974974Y-81316525D01*
X151974974Y-81327475D01*
X150702326Y-81327475D01*
X150702326Y-81316525D01*
X150684099Y-81108196D01*
X150682196Y-81097401D01*
X150628072Y-80895405D01*
X150624326Y-80885113D01*
X150535946Y-80695583D01*
X150530466Y-80686093D01*
X150501589Y-80644851D01*
X150491113Y-80636477D01*
X150477666Y-80643545D01*
X149812021Y-81309189D01*
X149804408Y-81323132D01*
X149074356Y-81323132D01*
X149075592Y-81320868D01*
X149075461Y-81319034D01*
X149071210Y-81312420D01*
X148401609Y-80642820D01*
X148389839Y-80636393D01*
X148377824Y-80645689D01*
X148349534Y-80686093D01*
X148344054Y-80695583D01*
X148255674Y-80885113D01*
X148251928Y-80895405D01*
X148197804Y-81097401D01*
X148195901Y-81108196D01*
X148177674Y-81316525D01*
X148177674Y-81327475D01*
X134148500Y-81327475D01*
X134148500Y-80627227D01*
X134168502Y-80559106D01*
X134222158Y-80512613D01*
X134288107Y-80501964D01*
X134326467Y-80506131D01*
X134326471Y-80506131D01*
X134329866Y-80506500D01*
X135926134Y-80506500D01*
X135988316Y-80499745D01*
X136124705Y-80448615D01*
X136241261Y-80361261D01*
X136308993Y-80270887D01*
X148754477Y-80270887D01*
X148761545Y-80284334D01*
X149427189Y-80949979D01*
X149441132Y-80957592D01*
X149442966Y-80957461D01*
X149449580Y-80953210D01*
X150119180Y-80283609D01*
X150125607Y-80271839D01*
X150116313Y-80259825D01*
X150075912Y-80231536D01*
X150066416Y-80226053D01*
X149876887Y-80137674D01*
X149866595Y-80133928D01*
X149664599Y-80079804D01*
X149653804Y-80077901D01*
X149445475Y-80059674D01*
X149434525Y-80059674D01*
X149226196Y-80077901D01*
X149215401Y-80079804D01*
X149013405Y-80133928D01*
X149003113Y-80137674D01*
X148813583Y-80226054D01*
X148804093Y-80231534D01*
X148762851Y-80260411D01*
X148754477Y-80270887D01*
X136308993Y-80270887D01*
X136328615Y-80244705D01*
X136379745Y-80108316D01*
X136386500Y-80046134D01*
X136386500Y-78774500D01*
X136406502Y-78706379D01*
X136460158Y-78659886D01*
X136512500Y-78648500D01*
X154005500Y-78648500D01*
X154073621Y-78668502D01*
G37*
%TD.AperFunction*%
%TD*%
M02*
