%TF.GenerationSoftware,KiCad,Pcbnew,6.0.11+dfsg-1~bpo11+1*%
%TF.CreationDate,2023-02-24T17:28:24+00:00*%
%TF.ProjectId,134n3p,3133346e-3370-42e6-9b69-6361645f7063,rev?*%
%TF.SameCoordinates,Original*%
%TF.FileFunction,Legend,Bot*%
%TF.FilePolarity,Positive*%
%FSLAX46Y46*%
G04 Gerber Fmt 4.6, Leading zero omitted, Abs format (unit mm)*
G04 Created by KiCad (PCBNEW 6.0.11+dfsg-1~bpo11+1) date 2023-02-24 17:28:24*
%MOMM*%
%LPD*%
G01*
G04 APERTURE LIST*
%ADD10C,0.150000*%
G04 APERTURE END LIST*
D10*
X147268095Y-83212380D02*
X147839523Y-83212380D01*
X147553809Y-83212380D02*
X147553809Y-82212380D01*
X147649047Y-82355238D01*
X147744285Y-82450476D01*
X147839523Y-82498095D01*
X146934761Y-82212380D02*
X146315714Y-82212380D01*
X146649047Y-82593333D01*
X146506190Y-82593333D01*
X146410952Y-82640952D01*
X146363333Y-82688571D01*
X146315714Y-82783809D01*
X146315714Y-83021904D01*
X146363333Y-83117142D01*
X146410952Y-83164761D01*
X146506190Y-83212380D01*
X146791904Y-83212380D01*
X146887142Y-83164761D01*
X146934761Y-83117142D01*
X145458571Y-82545714D02*
X145458571Y-83212380D01*
X145696666Y-82164761D02*
X145934761Y-82879047D01*
X145315714Y-82879047D01*
X144934761Y-83212380D02*
X144934761Y-82212380D01*
X144363333Y-83212380D01*
X144363333Y-82212380D01*
X143982380Y-82212380D02*
X143363333Y-82212380D01*
X143696666Y-82593333D01*
X143553809Y-82593333D01*
X143458571Y-82640952D01*
X143410952Y-82688571D01*
X143363333Y-82783809D01*
X143363333Y-83021904D01*
X143410952Y-83117142D01*
X143458571Y-83164761D01*
X143553809Y-83212380D01*
X143839523Y-83212380D01*
X143934761Y-83164761D01*
X143982380Y-83117142D01*
X142934761Y-83212380D02*
X142934761Y-82212380D01*
X142553809Y-82212380D01*
X142458571Y-82260000D01*
X142410952Y-82307619D01*
X142363333Y-82402857D01*
X142363333Y-82545714D01*
X142410952Y-82640952D01*
X142458571Y-82688571D01*
X142553809Y-82736190D01*
X142934761Y-82736190D01*
X140601428Y-83212380D02*
X140934761Y-82736190D01*
X141172857Y-83212380D02*
X141172857Y-82212380D01*
X140791904Y-82212380D01*
X140696666Y-82260000D01*
X140649047Y-82307619D01*
X140601428Y-82402857D01*
X140601428Y-82545714D01*
X140649047Y-82640952D01*
X140696666Y-82688571D01*
X140791904Y-82736190D01*
X141172857Y-82736190D01*
X139791904Y-83164761D02*
X139887142Y-83212380D01*
X140077619Y-83212380D01*
X140172857Y-83164761D01*
X140220476Y-83069523D01*
X140220476Y-82688571D01*
X140172857Y-82593333D01*
X140077619Y-82545714D01*
X139887142Y-82545714D01*
X139791904Y-82593333D01*
X139744285Y-82688571D01*
X139744285Y-82783809D01*
X140220476Y-82879047D01*
X139410952Y-82545714D02*
X139172857Y-83212380D01*
X138934761Y-82545714D01*
X137458571Y-82688571D02*
X137315714Y-82736190D01*
X137268095Y-82783809D01*
X137220476Y-82879047D01*
X137220476Y-83021904D01*
X137268095Y-83117142D01*
X137315714Y-83164761D01*
X137410952Y-83212380D01*
X137791904Y-83212380D01*
X137791904Y-82212380D01*
X137458571Y-82212380D01*
X137363333Y-82260000D01*
X137315714Y-82307619D01*
X137268095Y-82402857D01*
X137268095Y-82498095D01*
X137315714Y-82593333D01*
X137363333Y-82640952D01*
X137458571Y-82688571D01*
X137791904Y-82688571D01*
X150247619Y-92208571D02*
X150580952Y-92208571D01*
X150580952Y-92732380D02*
X150580952Y-91732380D01*
X150104761Y-91732380D01*
X149295238Y-92732380D02*
X149295238Y-92208571D01*
X149342857Y-92113333D01*
X149438095Y-92065714D01*
X149628571Y-92065714D01*
X149723809Y-92113333D01*
X149295238Y-92684761D02*
X149390476Y-92732380D01*
X149628571Y-92732380D01*
X149723809Y-92684761D01*
X149771428Y-92589523D01*
X149771428Y-92494285D01*
X149723809Y-92399047D01*
X149628571Y-92351428D01*
X149390476Y-92351428D01*
X149295238Y-92303809D01*
X148390476Y-92684761D02*
X148485714Y-92732380D01*
X148676190Y-92732380D01*
X148771428Y-92684761D01*
X148819047Y-92637142D01*
X148866666Y-92541904D01*
X148866666Y-92256190D01*
X148819047Y-92160952D01*
X148771428Y-92113333D01*
X148676190Y-92065714D01*
X148485714Y-92065714D01*
X148390476Y-92113333D01*
X147580952Y-92684761D02*
X147676190Y-92732380D01*
X147866666Y-92732380D01*
X147961904Y-92684761D01*
X148009523Y-92589523D01*
X148009523Y-92208571D01*
X147961904Y-92113333D01*
X147866666Y-92065714D01*
X147676190Y-92065714D01*
X147580952Y-92113333D01*
X147533333Y-92208571D01*
X147533333Y-92303809D01*
X148009523Y-92399047D01*
X146961904Y-92732380D02*
X147057142Y-92684761D01*
X147104761Y-92589523D01*
X147104761Y-91732380D01*
X146200000Y-92684761D02*
X146295238Y-92732380D01*
X146485714Y-92732380D01*
X146580952Y-92684761D01*
X146628571Y-92589523D01*
X146628571Y-92208571D01*
X146580952Y-92113333D01*
X146485714Y-92065714D01*
X146295238Y-92065714D01*
X146200000Y-92113333D01*
X146152380Y-92208571D01*
X146152380Y-92303809D01*
X146628571Y-92399047D01*
X145771428Y-92684761D02*
X145676190Y-92732380D01*
X145485714Y-92732380D01*
X145390476Y-92684761D01*
X145342857Y-92589523D01*
X145342857Y-92541904D01*
X145390476Y-92446666D01*
X145485714Y-92399047D01*
X145628571Y-92399047D01*
X145723809Y-92351428D01*
X145771428Y-92256190D01*
X145771428Y-92208571D01*
X145723809Y-92113333D01*
X145628571Y-92065714D01*
X145485714Y-92065714D01*
X145390476Y-92113333D01*
X144961904Y-92684761D02*
X144866666Y-92732380D01*
X144676190Y-92732380D01*
X144580952Y-92684761D01*
X144533333Y-92589523D01*
X144533333Y-92541904D01*
X144580952Y-92446666D01*
X144676190Y-92399047D01*
X144819047Y-92399047D01*
X144914285Y-92351428D01*
X144961904Y-92256190D01*
X144961904Y-92208571D01*
X144914285Y-92113333D01*
X144819047Y-92065714D01*
X144676190Y-92065714D01*
X144580952Y-92113333D01*
X144247619Y-92065714D02*
X143866666Y-92065714D01*
X144104761Y-91732380D02*
X144104761Y-92589523D01*
X144057142Y-92684761D01*
X143961904Y-92732380D01*
X143866666Y-92732380D01*
X143152380Y-92684761D02*
X143247619Y-92732380D01*
X143438095Y-92732380D01*
X143533333Y-92684761D01*
X143580952Y-92589523D01*
X143580952Y-92208571D01*
X143533333Y-92113333D01*
X143438095Y-92065714D01*
X143247619Y-92065714D01*
X143152380Y-92113333D01*
X143104761Y-92208571D01*
X143104761Y-92303809D01*
X143580952Y-92399047D01*
X142247619Y-92684761D02*
X142342857Y-92732380D01*
X142533333Y-92732380D01*
X142628571Y-92684761D01*
X142676190Y-92637142D01*
X142723809Y-92541904D01*
X142723809Y-92256190D01*
X142676190Y-92160952D01*
X142628571Y-92113333D01*
X142533333Y-92065714D01*
X142342857Y-92065714D01*
X142247619Y-92113333D01*
X141819047Y-92732380D02*
X141819047Y-91732380D01*
X141390476Y-92732380D02*
X141390476Y-92208571D01*
X141438095Y-92113333D01*
X141533333Y-92065714D01*
X141676190Y-92065714D01*
X141771428Y-92113333D01*
X141819047Y-92160952D01*
X140200000Y-91827619D02*
X140152380Y-91780000D01*
X140057142Y-91732380D01*
X139819047Y-91732380D01*
X139723809Y-91780000D01*
X139676190Y-91827619D01*
X139628571Y-91922857D01*
X139628571Y-92018095D01*
X139676190Y-92160952D01*
X140247619Y-92732380D01*
X139628571Y-92732380D01*
X139009523Y-91732380D02*
X138914285Y-91732380D01*
X138819047Y-91780000D01*
X138771428Y-91827619D01*
X138723809Y-91922857D01*
X138676190Y-92113333D01*
X138676190Y-92351428D01*
X138723809Y-92541904D01*
X138771428Y-92637142D01*
X138819047Y-92684761D01*
X138914285Y-92732380D01*
X139009523Y-92732380D01*
X139104761Y-92684761D01*
X139152380Y-92637142D01*
X139200000Y-92541904D01*
X139247619Y-92351428D01*
X139247619Y-92113333D01*
X139200000Y-91922857D01*
X139152380Y-91827619D01*
X139104761Y-91780000D01*
X139009523Y-91732380D01*
X138295238Y-91827619D02*
X138247619Y-91780000D01*
X138152380Y-91732380D01*
X137914285Y-91732380D01*
X137819047Y-91780000D01*
X137771428Y-91827619D01*
X137723809Y-91922857D01*
X137723809Y-92018095D01*
X137771428Y-92160952D01*
X138342857Y-92732380D01*
X137723809Y-92732380D01*
X137390476Y-91732380D02*
X136771428Y-91732380D01*
X137104761Y-92113333D01*
X136961904Y-92113333D01*
X136866666Y-92160952D01*
X136819047Y-92208571D01*
X136771428Y-92303809D01*
X136771428Y-92541904D01*
X136819047Y-92637142D01*
X136866666Y-92684761D01*
X136961904Y-92732380D01*
X137247619Y-92732380D01*
X137342857Y-92684761D01*
X137390476Y-92637142D01*
%TO.C,RED*%
X153112857Y-92592380D02*
X153446190Y-92116190D01*
X153684285Y-92592380D02*
X153684285Y-91592380D01*
X153303333Y-91592380D01*
X153208095Y-91640000D01*
X153160476Y-91687619D01*
X153112857Y-91782857D01*
X153112857Y-91925714D01*
X153160476Y-92020952D01*
X153208095Y-92068571D01*
X153303333Y-92116190D01*
X153684285Y-92116190D01*
X152684285Y-92068571D02*
X152350952Y-92068571D01*
X152208095Y-92592380D02*
X152684285Y-92592380D01*
X152684285Y-91592380D01*
X152208095Y-91592380D01*
X151779523Y-92592380D02*
X151779523Y-91592380D01*
X151541428Y-91592380D01*
X151398571Y-91640000D01*
X151303333Y-91735238D01*
X151255714Y-91830476D01*
X151208095Y-92020952D01*
X151208095Y-92163809D01*
X151255714Y-92354285D01*
X151303333Y-92449523D01*
X151398571Y-92544761D01*
X151541428Y-92592380D01*
X151779523Y-92592380D01*
%TO.C,R1*%
X147402380Y-84393333D02*
X146926190Y-84060000D01*
X147402380Y-83821904D02*
X146402380Y-83821904D01*
X146402380Y-84202857D01*
X146450000Y-84298095D01*
X146497619Y-84345714D01*
X146592857Y-84393333D01*
X146735714Y-84393333D01*
X146830952Y-84345714D01*
X146878571Y-84298095D01*
X146926190Y-84202857D01*
X146926190Y-83821904D01*
X147402380Y-85345714D02*
X147402380Y-84774285D01*
X147402380Y-85060000D02*
X146402380Y-85060000D01*
X146545238Y-84964761D01*
X146640476Y-84869523D01*
X146688095Y-84774285D01*
%TO.C,BLUE*%
X153779523Y-79268571D02*
X153636666Y-79316190D01*
X153589047Y-79363809D01*
X153541428Y-79459047D01*
X153541428Y-79601904D01*
X153589047Y-79697142D01*
X153636666Y-79744761D01*
X153731904Y-79792380D01*
X154112857Y-79792380D01*
X154112857Y-78792380D01*
X153779523Y-78792380D01*
X153684285Y-78840000D01*
X153636666Y-78887619D01*
X153589047Y-78982857D01*
X153589047Y-79078095D01*
X153636666Y-79173333D01*
X153684285Y-79220952D01*
X153779523Y-79268571D01*
X154112857Y-79268571D01*
X152636666Y-79792380D02*
X153112857Y-79792380D01*
X153112857Y-78792380D01*
X152303333Y-78792380D02*
X152303333Y-79601904D01*
X152255714Y-79697142D01*
X152208095Y-79744761D01*
X152112857Y-79792380D01*
X151922380Y-79792380D01*
X151827142Y-79744761D01*
X151779523Y-79697142D01*
X151731904Y-79601904D01*
X151731904Y-78792380D01*
X151255714Y-79268571D02*
X150922380Y-79268571D01*
X150779523Y-79792380D02*
X151255714Y-79792380D01*
X151255714Y-78792380D01*
X150779523Y-78792380D01*
%TO.C,U1*%
X143251619Y-88680380D02*
X143823047Y-88680380D01*
X143537333Y-88680380D02*
X143537333Y-87680380D01*
X143632571Y-87823238D01*
X143727809Y-87918476D01*
X143823047Y-87966095D01*
X142918285Y-87680380D02*
X142299238Y-87680380D01*
X142632571Y-88061333D01*
X142489714Y-88061333D01*
X142394476Y-88108952D01*
X142346857Y-88156571D01*
X142299238Y-88251809D01*
X142299238Y-88489904D01*
X142346857Y-88585142D01*
X142394476Y-88632761D01*
X142489714Y-88680380D01*
X142775428Y-88680380D01*
X142870666Y-88632761D01*
X142918285Y-88585142D01*
X141442095Y-88013714D02*
X141442095Y-88680380D01*
X141680190Y-87632761D02*
X141918285Y-88347047D01*
X141299238Y-88347047D01*
X140918285Y-88013714D02*
X140918285Y-88680380D01*
X140918285Y-88108952D02*
X140870666Y-88061333D01*
X140775428Y-88013714D01*
X140632571Y-88013714D01*
X140537333Y-88061333D01*
X140489714Y-88156571D01*
X140489714Y-88680380D01*
X140108761Y-87680380D02*
X139489714Y-87680380D01*
X139823047Y-88061333D01*
X139680190Y-88061333D01*
X139584952Y-88108952D01*
X139537333Y-88156571D01*
X139489714Y-88251809D01*
X139489714Y-88489904D01*
X139537333Y-88585142D01*
X139584952Y-88632761D01*
X139680190Y-88680380D01*
X139965904Y-88680380D01*
X140061142Y-88632761D01*
X140108761Y-88585142D01*
X139061142Y-88013714D02*
X139061142Y-89013714D01*
X139061142Y-88061333D02*
X138965904Y-88013714D01*
X138775428Y-88013714D01*
X138680190Y-88061333D01*
X138632571Y-88108952D01*
X138584952Y-88204190D01*
X138584952Y-88489904D01*
X138632571Y-88585142D01*
X138680190Y-88632761D01*
X138775428Y-88680380D01*
X138965904Y-88680380D01*
X139061142Y-88632761D01*
%TO.C,R2*%
X147334380Y-87099333D02*
X146858190Y-86766000D01*
X147334380Y-86527904D02*
X146334380Y-86527904D01*
X146334380Y-86908857D01*
X146382000Y-87004095D01*
X146429619Y-87051714D01*
X146524857Y-87099333D01*
X146667714Y-87099333D01*
X146762952Y-87051714D01*
X146810571Y-87004095D01*
X146858190Y-86908857D01*
X146858190Y-86527904D01*
X146429619Y-87480285D02*
X146382000Y-87527904D01*
X146334380Y-87623142D01*
X146334380Y-87861238D01*
X146382000Y-87956476D01*
X146429619Y-88004095D01*
X146524857Y-88051714D01*
X146620095Y-88051714D01*
X146762952Y-88004095D01*
X147334380Y-87432666D01*
X147334380Y-88051714D01*
%TD*%
M02*
